<svg width="487" height="130" viewBox="0 0 487 130" fill="none" xmlns="http://www.w3.org/2000/svg">
<g clip-path="url(#clip0_873_58)">
<path d="M226.749 20.8684H249.312C268.656 20.8684 273.937 28.7558 273.937 36.8987C273.937 38.5596 273.783 40.1184 273.536 41.5749C272.276 48.8149 266.952 58.3122 246.45 58.2611H220.82L226.749 20.8769V20.8684ZM233.58 49.2664H245.488C258.256 49.2664 260.862 44.1387 261.62 40.2717C261.773 39.5136 261.876 38.6619 261.876 38.0145C261.876 34.1986 259.814 29.7183 248.614 29.7183H236.706L233.588 49.2664H233.58Z" fill="black"/>
<path d="M307.863 51.4214H285.7L281.475 58.2525H269.67L293.289 20.8684H308.008L322.233 58.2525H310.376L307.863 51.4214ZM299.618 28.9602L290.922 42.9803H304.737L299.61 28.9602H299.618Z" fill="black"/>
<path d="M368.168 20.8684L366.813 29.3605H340.579L339.727 34.8885H365.306L363.951 43.4318H338.373L336.013 58.2525H324.659L330.587 20.8684H368.176H368.168Z" fill="black"/>
<path d="M411.294 20.8684L409.939 29.3605H383.705L382.853 34.8885H408.432L407.077 43.4318H381.499L379.139 58.2525H367.785L373.713 20.8684H411.302H411.294Z" fill="black"/>
<path d="M440.544 51.4214H418.381L414.156 58.2525H402.351L425.97 20.8684H440.697L454.922 58.2525H443.065L440.552 51.4214H440.544ZM432.307 28.9602L423.611 42.9803H437.426L432.299 28.9602H432.307Z" fill="black"/>
<path d="M221.026 92.3573H232.832C232.883 94.7167 233.59 98.2856 242.985 98.2856H243.59C254.041 98.2856 254.748 95.7218 254.748 93.865C254.748 91.8548 253.641 90.7475 246.358 90.5516L240.123 90.3983C227.108 90.1001 223.488 85.2195 223.488 79.4956C223.488 78.7972 223.539 78.2435 223.641 77.5366C224.399 72.4089 228.164 67.5879 244.799 67.5879H248.019C265.301 67.5879 268.572 73.7206 267.814 79.896H256.051C255.898 78.3883 255.498 75.3731 246 75.3731H245.302C235.958 75.3731 235.404 77.2299 235.404 78.7375C235.404 80.143 236.111 81.7528 242.891 81.855L248.922 81.9572C262.184 82.1617 266.962 85.5261 266.962 92.4595C266.962 93.3624 266.86 94.5208 266.707 95.2704C265.6 100.696 262.388 106.275 244.041 106.275H240.779C221.836 106.275 220.43 97.6809 221.026 92.3573Z" fill="black"/>
<path d="M293.74 106.275C275.095 106.275 270.623 96.2244 270.623 88.9417C270.623 87.7322 270.674 86.6249 270.921 84.8192C271.773 78.4905 276.449 67.5879 297.156 67.5879H299.115C320.775 67.5879 323.135 77.741 322.377 82.8686H310.264C310.111 81.7613 309.106 76.6337 297.496 76.6337C286.79 76.6337 283.63 81.6591 283.025 85.475C282.871 86.429 282.82 87.2382 282.82 88.1411C282.82 92.6129 285.64 97.1869 295.18 97.1869C307.036 97.1869 308.748 91.4033 309.097 90.5516H321.21C320.707 95.9262 316.533 106.284 295.733 106.284H293.723L293.74 106.275Z" fill="black"/>
<path d="M334.856 105.619H323.451L329.38 68.2354H359.03C369.983 68.2354 373.101 72.409 373.101 77.2811C373.101 83.0647 368.178 85.6711 364.856 86.625C368.271 87.6812 371.235 90.0406 370.486 94.8702L369.481 101.156C369.08 103.822 369.379 104.776 369.532 105.372L369.481 105.628H357.871C357.667 105.228 357.522 104.674 357.769 103.115L358.425 98.9927C359.132 94.572 357.471 92.3574 351.696 92.3574H336.969L334.856 105.619ZM355.605 84.0612C359.37 84.0612 360.827 81.9999 360.827 79.9898C360.827 77.9796 359.72 76.7275 356.653 76.7275H339.422L338.212 84.0612H355.597H355.605Z" fill="black"/>
<path d="M385.417 105.619H374.012L379.94 68.2354H391.345L385.417 105.619Z" fill="black"/>
<path d="M391.694 105.619L397.623 68.2354H424.002C436.267 68.2354 440.237 72.8605 440.237 79.3935C440.237 85.424 437.324 93.1581 422.196 93.1581H405.11L403.1 105.619H391.694ZM422.145 84.7682C426.37 84.7682 428.073 82.8602 428.073 80.1942C428.073 77.937 426.566 76.7275 423.346 76.7275H407.665L406.362 84.7682H422.137H422.145Z" fill="black"/>
<path d="M458.49 77.0767H443.064L444.419 68.2354H486.879L485.474 77.0767H470.048L465.526 105.619H453.967L458.49 77.0767Z" fill="black"/>
<path d="M478.259 38.1082C477.016 38.1082 475.866 37.8952 474.81 37.4608C473.753 37.0349 472.851 36.4302 472.075 35.6636C471.309 34.897 470.704 33.9856 470.278 32.9294C469.852 31.8732 469.631 30.7318 469.631 29.4797C469.631 28.2276 469.844 27.0863 470.278 26.0301C470.704 24.9739 471.309 24.071 472.075 23.2959C472.842 22.5293 473.753 21.9245 474.81 21.4987C475.857 21.0728 477.007 20.8513 478.259 20.8513C479.511 20.8513 480.653 21.0643 481.709 21.4987C482.765 21.9245 483.668 22.5293 484.443 23.2959C485.21 24.0625 485.814 24.9739 486.24 26.0301C486.666 27.0863 486.888 28.2276 486.888 29.4797C486.888 30.7318 486.675 31.8732 486.24 32.9294C485.814 33.9856 485.21 34.8885 484.443 35.6636C483.677 36.4302 482.765 37.0349 481.709 37.4608C480.653 37.8867 479.511 38.1082 478.259 38.1082ZM478.259 36.9923C479.699 36.9923 480.976 36.6687 482.092 36.0213C483.208 35.374 484.085 34.4881 484.724 33.3468C485.363 32.2139 485.687 30.9277 485.687 29.4883C485.687 28.0488 485.363 26.7626 484.724 25.6383C484.085 24.5139 483.208 23.6281 482.092 22.9807C480.976 22.3334 479.699 22.0097 478.259 22.0097C476.82 22.0097 475.534 22.3334 474.409 22.9807C473.285 23.6281 472.399 24.5139 471.76 25.6383C471.121 26.7626 470.798 28.0488 470.798 29.4883C470.798 30.9277 471.113 32.2139 471.76 33.3468C472.399 34.4796 473.285 35.374 474.409 36.0213C475.534 36.6687 476.82 36.9923 478.259 36.9923ZM478.183 34.6329C477.322 34.6329 476.581 34.4626 475.959 34.1219C475.338 33.7812 474.861 33.236 474.537 32.4865C474.213 31.7369 474.052 30.7404 474.052 29.5138C474.052 28.2873 474.213 27.2992 474.529 26.5497C474.844 25.8086 475.312 25.2635 475.934 24.9143C476.556 24.565 477.305 24.3947 478.183 24.3947C478.975 24.3947 479.656 24.531 480.218 24.795C480.781 25.0591 481.223 25.4849 481.53 26.0727C481.837 26.6519 481.99 27.427 481.99 28.381H480.533C480.533 27.6995 480.44 27.1629 480.252 26.7626C480.065 26.3623 479.801 26.0812 479.452 25.9108C479.103 25.7405 478.677 25.6553 478.174 25.6553C477.331 25.6553 476.675 25.9449 476.207 26.5156C475.738 27.0863 475.5 27.9891 475.5 29.2242V29.8034C475.5 30.6296 475.602 31.311 475.815 31.8391C476.028 32.3758 476.326 32.759 476.726 33.0061C477.126 33.2446 477.603 33.3723 478.174 33.3723C478.677 33.3723 479.111 33.2786 479.469 33.0912C479.835 32.9038 480.116 32.6142 480.304 32.2139C480.499 31.8136 480.593 31.3025 480.593 30.6722H481.973C481.973 31.5155 481.82 32.2224 481.513 32.8102C481.206 33.3894 480.772 33.8408 480.218 34.1559C479.665 34.4711 478.975 34.6329 478.166 34.6329H478.183Z" fill="black"/>
<path d="M184.05 64.6833C179.263 82.5449 167.688 98.7115 152.85 110.423C138.004 122.127 119.895 129.367 102.033 129.367H37.3415L43.1165 107.808H0L5.77499 86.2501H113.583C119.537 86.2501 125.576 83.8396 130.525 79.9385C135.474 76.0374 139.332 70.6457 140.925 64.6918C144.119 52.7841 137.05 43.1336 125.142 43.1336H17.3335L23.1085 21.5753H66.2335L72.0085 0H136.692C172.415 0 193.616 28.9601 184.042 64.6833H184.05ZM80.8584 53.8999H14.446L8.67101 75.4582H75.0834L80.8584 53.8999Z" fill="url(#paint0_linear_873_58)"/>
</g>
<defs>
<linearGradient id="paint0_linear_873_58" x1="0" y1="64.6833" x2="186.341" y2="64.6833" gradientUnits="userSpaceOnUse">
<stop stop-color="#FF7732"/>
<stop offset="1" stop-color="#FD0091"/>
</linearGradient>
<clipPath id="clip0_873_58">
<rect width="486.88" height="129.367" fill="white"/>
</clipPath>
</defs>
</svg>
